<?xml version="1.0" encoding="UTF-8"?>
<svg width="344px" height="345px" viewBox="0 0 344 345" version="1.1" xmlns="http://www.w3.org/2000/svg" xmlns:xlink="http://www.w3.org/1999/xlink">
    <title>Notes</title>
    <g id="Notes" stroke="none" stroke-width="1" fill="none" fill-rule="evenodd">
        <g id="Banner" transform="translate(-126.000000, -236.000000)">
            <rect id="Rectangle" fill="#E8FF28" opacity="0.2" x="0" y="0" width="1768" height="816" rx="40"></rect>
            <g id="Notes" transform="translate(126.000000, 236.000000)">
                <path d="M73.013407,2.6866064 C106.18824,0.895535467 139.183771,0 172,0 C204.832174,0 237.664282,0.896405919 270.496323,2.68921776 C308.699378,4.77531668 339.208201,35.2833237 341.295323,73.4863222 C343.098441,106.490881 344,139.495441 344,172.5 C344,205.511425 343.098066,238.52285 341.294197,271.534276 L341.294197,271.534275 C339.20649,309.740047 308.693155,340.248892 270.487077,342.330977 C237.836179,344.110326 205.007154,345 172,345 C139.007428,345 106.01479,344.111111 73.0220864,342.333334 C34.4742283,340.256224 3.79947595,309.257162 2.12787429,270.689591 C0.709291429,237.959727 0,205.229864 0,172.5 C0,139.776865 0.708999838,107.053729 2.12699951,74.3305938 L2.12699924,74.3305938 C3.79813889,35.7657548 34.4685114,4.76760084 73.013407,2.6866064 Z" id="Rectangle" fill="#E8FF28"></path>
                <path d="M120.076923,187.674915 L222.923077,187.674915 L222.923077,173.007278 L120.076923,173.007278 L120.076923,187.674915 Z M120.076923,158.339641 L222.923077,158.339641 L222.923077,143.672004 L120.076923,143.672004 L120.076923,158.339641 Z M258.376717,70.591969 C256.97801,70.2839486 223.590108,63 171.5573,63 C119.524492,63 86.0363154,70.2766148 84.6302615,70.591969 C79.5871269,71.7089095 76,76.1781385 76,81.3272125 L76,264.68001 C76,269.836418 79.5871269,274.305647 84.6302615,275.422587 C105.054406,279.895483 147.609573,284.48572 193.653062,282.541158 C214.22119,282.541525 267,230.109123 267,209.676371 L267,81.3272125 C267,76.1781385 263.412873,71.7162433 258.376717,70.591969 Z M244.961538,198.668309 C244.961538,204.741444 240.025658,209.669037 233.942308,209.669037 L233.942308,209.676371 L204.823256,209.676371 C204.823256,209.691039 204.823256,209.691039 204.823256,209.697639 C204.751631,209.697639 204.686985,209.676371 204.61536,209.676371 C198.517317,209.676371 193.596129,214.603964 193.596129,220.677099 C193.596129,220.74897 193.6178,220.820108 193.6178,220.884646 C193.610454,220.884646 193.603475,220.884646 193.596129,220.884646 L193.596129,249.71902 C193.596129,249.76889 193.610454,249.81216 193.610454,249.869363 C193.610454,249.9119 193.596129,249.955169 193.596129,250.005039 L193.596129,250.012373 C193.510913,255.945432 188.737383,261.657743 182.533923,261.657743 C182.533923,261.671678 182.533923,261.671678 182.533923,261.686345 C151.814512,262.36399 126.822162,260.218848 98.0384615,255.512737 L98.0384615,90.4871519 C110.78661,88.4105812 136.928633,84.2138035 171.5573,84.2138035 C206.049696,84.2138035 232.199065,88.4102145 244.961538,90.4944857 L244.990188,198.675643 C244.975863,198.675643 244.968885,198.668309 244.961538,198.668309 Z M120.076923,129.004367 L222.923077,129.004367 L222.923077,114.33673 L120.076923,114.33673 L120.076923,129.004367 Z" id="Shape" fill="#333C00" fill-rule="nonzero"></path>
            </g>
        </g>
    </g>
</svg>